# MagicaVoxel @ Ephtracy

# group
o 

# material
mtllib Arm.mtl
usemtl palette

# normals
vn -1 0 0
vn 1 0 0
vn 0 0 1
vn 0 0 -1
vn 0 -1 0
vn 0 1 0

# texcoords
vt 0.486328 0.5
vt 0.751953 0.5
vt 0.916016 0.5

# verts
v -0.8 0 -0.5
v -0.8 0 -0.8
v -0.8 0.1 -0.5
v -0.8 0.1 -0.8
v -0.8 0.2 -0.5
v -0.8 0.2 -0.8
v -0.8 1.1 -0.5
v -0.8 1.1 -0.8
v -0.8 1.6 -0.5
v -0.8 1.6 -0.8
v -0.7 0.1 -0.5
v -0.7 0.1 -0.8
v -0.7 0.2 -0.5
v -0.7 0.2 -0.8
v -0.7 1.5 -0.5
v -0.7 1.5 -0.8
v -0.7 1.6 -0.5
v -0.7 1.6 -0.8
v -0.6 0 -0.5
v -0.6 0 -0.8
v -0.6 0.1 -0.5
v -0.6 0.1 -0.8
v -0.6 1.4 -0.5
v -0.6 1.4 -0.8
v -0.6 1.5 -0.5
v -0.6 1.5 -0.8
v -0.5 0.1 -0.5
v -0.5 0.1 -0.8
v -0.5 1.1 -0.5
v -0.5 1.1 -0.6
v -0.5 1.1 -0.7
v -0.5 1.1 -0.8
v -0.5 1.3 -0.6
v -0.5 1.3 -0.7
v -0.5 1.4 -0.5
v -0.5 1.4 -0.8
v -0.4 1.1 -0.6
v -0.4 1.1 -0.7
v -0.4 1.3 -0.6
v -0.4 1.3 -0.7
v -0.8 0 -0.5
v -0.8 0.1 -0.5
v -0.8 0.2 -0.5
v -0.8 1.1 -0.5
v -0.8 1.6 -0.5
v -0.7 0.1 -0.5
v -0.7 0.2 -0.5
v -0.7 1.1 -0.5
v -0.7 1.5 -0.5
v -0.7 1.6 -0.5
v -0.6 0 -0.5
v -0.6 0.1 -0.5
v -0.6 1.1 -0.5
v -0.6 1.4 -0.5
v -0.6 1.5 -0.5
v -0.5 0.1 -0.5
v -0.5 1.1 -0.5
v -0.5 1.4 -0.5
v -0.5 1.1 -0.6
v -0.5 1.3 -0.6
v -0.4 1.1 -0.6
v -0.4 1.3 -0.6
v -0.5 1.1 -0.7
v -0.5 1.3 -0.7
v -0.4 1.1 -0.7
v -0.4 1.3 -0.7
v -0.8 0 -0.8
v -0.8 0.1 -0.8
v -0.8 0.2 -0.8
v -0.8 1.1 -0.8
v -0.8 1.6 -0.8
v -0.7 0.1 -0.8
v -0.7 0.2 -0.8
v -0.7 1.1 -0.8
v -0.7 1.5 -0.8
v -0.7 1.6 -0.8
v -0.6 0 -0.8
v -0.6 0.1 -0.8
v -0.6 1.1 -0.8
v -0.6 1.4 -0.8
v -0.6 1.5 -0.8
v -0.5 0.1 -0.8
v -0.5 1.1 -0.8
v -0.5 1.4 -0.8
v -0.8 0 -0.5
v -0.6 0 -0.5
v -0.8 0 -0.8
v -0.6 0 -0.8
v -0.6 0.1 -0.5
v -0.5 0.1 -0.5
v -0.6 0.1 -0.8
v -0.5 0.1 -0.8
v -0.8 0.2 -0.5
v -0.7 0.2 -0.5
v -0.8 0.2 -0.8
v -0.7 0.2 -0.8
v -0.5 1.1 -0.6
v -0.4 1.1 -0.6
v -0.5 1.1 -0.7
v -0.4 1.1 -0.7
v -0.8 0.1 -0.5
v -0.7 0.1 -0.5
v -0.8 0.1 -0.8
v -0.7 0.1 -0.8
v -0.5 1.3 -0.6
v -0.4 1.3 -0.6
v -0.5 1.3 -0.7
v -0.4 1.3 -0.7
v -0.6 1.4 -0.5
v -0.5 1.4 -0.5
v -0.6 1.4 -0.8
v -0.5 1.4 -0.8
v -0.7 1.5 -0.5
v -0.6 1.5 -0.5
v -0.7 1.5 -0.8
v -0.6 1.5 -0.8
v -0.8 1.6 -0.5
v -0.7 1.6 -0.5
v -0.8 1.6 -0.8
v -0.7 1.6 -0.8

# faces
f 3/1/1 2/1/1 1/1/1
f 4/1/1 2/1/1 3/1/1
f 7/1/1 6/1/1 5/1/1
f 8/1/1 6/1/1 7/1/1
f 9/3/1 8/3/1 7/3/1
f 10/3/1 8/3/1 9/3/1
f 13/1/1 12/1/1 11/1/1
f 14/1/1 12/1/1 13/1/1
f 15/3/2 16/3/2 17/3/2
f 17/3/2 16/3/2 18/3/2
f 19/1/2 20/1/2 21/1/2
f 21/1/2 20/1/2 22/1/2
f 23/2/2 24/2/2 25/2/2
f 25/2/2 24/2/2 26/2/2
f 27/1/2 28/1/2 29/1/2
f 29/1/2 28/1/2 30/1/2
f 30/1/2 28/1/2 31/1/2
f 31/1/2 28/1/2 32/1/2
f 29/3/2 30/3/2 33/3/2
f 31/3/2 32/3/2 34/3/2
f 29/3/2 33/3/2 35/3/2
f 33/3/2 34/3/2 35/3/2
f 34/3/2 32/3/2 36/3/2
f 35/3/2 34/3/2 36/3/2
f 37/2/2 38/2/2 39/2/2
f 39/2/2 38/2/2 40/2/2
f 46/1/3 42/1/3 41/1/3
f 47/1/3 44/1/3 43/1/3
f 48/3/3 45/3/3 44/3/3
f 48/1/3 44/1/3 47/1/3
f 49/3/3 45/3/3 48/3/3
f 50/3/3 45/3/3 49/3/3
f 51/1/3 47/1/3 46/1/3
f 51/1/3 46/1/3 41/1/3
f 51/1/3 48/1/3 47/1/3
f 52/1/3 48/1/3 51/1/3
f 53/2/3 49/2/3 48/2/3
f 53/1/3 48/1/3 52/1/3
f 54/2/3 49/2/3 53/2/3
f 55/2/3 49/2/3 54/2/3
f 56/1/3 53/1/3 52/1/3
f 57/3/3 54/3/3 53/3/3
f 57/1/3 53/1/3 56/1/3
f 58/3/3 54/3/3 57/3/3
f 61/2/3 60/2/3 59/2/3
f 62/2/3 60/2/3 61/2/3
f 63/2/4 64/2/4 65/2/4
f 65/2/4 64/2/4 66/2/4
f 67/1/4 68/1/4 72/1/4
f 69/1/4 70/1/4 73/1/4
f 70/3/4 71/3/4 74/3/4
f 73/1/4 70/1/4 74/1/4
f 74/3/4 71/3/4 75/3/4
f 75/3/4 71/3/4 76/3/4
f 72/1/4 73/1/4 77/1/4
f 67/1/4 72/1/4 77/1/4
f 73/1/4 74/1/4 77/1/4
f 77/1/4 74/1/4 78/1/4
f 74/2/4 75/2/4 79/2/4
f 78/1/4 74/1/4 79/1/4
f 79/2/4 75/2/4 80/2/4
f 80/2/4 75/2/4 81/2/4
f 78/1/4 79/1/4 82/1/4
f 79/3/4 80/3/4 83/3/4
f 82/1/4 79/1/4 83/1/4
f 83/3/4 80/3/4 84/3/4
f 87/1/5 86/1/5 85/1/5
f 88/1/5 86/1/5 87/1/5
f 91/1/5 90/1/5 89/1/5
f 92/1/5 90/1/5 91/1/5
f 95/1/5 94/1/5 93/1/5
f 96/1/5 94/1/5 95/1/5
f 99/2/5 98/2/5 97/2/5
f 100/2/5 98/2/5 99/2/5
f 101/1/6 102/1/6 103/1/6
f 103/1/6 102/1/6 104/1/6
f 105/2/6 106/2/6 107/2/6
f 107/2/6 106/2/6 108/2/6
f 109/3/6 110/3/6 111/3/6
f 111/3/6 110/3/6 112/3/6
f 113/2/6 114/2/6 115/2/6
f 115/2/6 114/2/6 116/2/6
f 117/3/6 118/3/6 119/3/6
f 119/3/6 118/3/6 120/3/6
