# MagicaVoxel @ Ephtracy

# group
o 

# material
mtllib Leg.mtl
usemtl palette

# normals
vn -1 0 0
vn 1 0 0
vn 0 0 1
vn 0 0 -1
vn 0 -1 0
vn 0 1 0

# texcoords
vt 0.486328 0.5
vt 0.591797 0.5
vt 0.912109 0.5
vt 0.990234 0.5

# verts
v -0.6 1.8 0.7
v -0.6 1.8 0.4
v -0.6 2.7 0.7
v -0.6 2.7 0.4
v -0.5 0.6 1
v -0.5 0.6 0.4
v -0.5 0.7 1
v -0.5 0.7 0.4
v -0.5 0.8 1
v -0.5 0.8 0.9
v -0.5 0.9 0.9
v -0.5 0.9 0.7
v -0.5 0.9 0.4
v -0.5 1.8 0.8
v -0.5 1.8 0.7
v -0.5 1.8 0.4
v -0.5 1.8 0.3
v -0.5 2.7 0.8
v -0.5 2.7 0.7
v -0.5 2.7 0.4
v -0.5 2.7 0.3
v -0.2 0.6 1
v -0.2 0.6 0.4
v -0.2 0.7 1
v -0.2 0.7 0.4
v -0.2 0.8 1
v -0.2 0.8 0.9
v -0.2 0.9 0.9
v -0.2 0.9 0.7
v -0.2 0.9 0.4
v -0.2 1.8 0.8
v -0.2 1.8 0.7
v -0.2 1.8 0.4
v -0.2 1.8 0.3
v -0.2 2.7 0.8
v -0.2 2.7 0.7
v -0.2 2.7 0.4
v -0.2 2.7 0.3
v -0.1 1.8 0.7
v -0.1 1.8 0.4
v -0.1 2.7 0.7
v -0.1 2.7 0.4
v -0.5 0.6 1
v -0.5 0.7 1
v -0.5 0.8 1
v -0.2 0.6 1
v -0.2 0.7 1
v -0.2 0.8 1
v -0.5 0.8 0.9
v -0.5 0.9 0.9
v -0.2 0.8 0.9
v -0.2 0.9 0.9
v -0.5 1.8 0.8
v -0.5 2.7 0.8
v -0.2 1.8 0.8
v -0.2 2.7 0.8
v -0.6 1.8 0.7
v -0.6 2.7 0.7
v -0.5 0.9 0.7
v -0.5 1.8 0.7
v -0.5 2.7 0.7
v -0.2 0.9 0.7
v -0.2 1.8 0.7
v -0.2 2.7 0.7
v -0.1 1.8 0.7
v -0.1 2.7 0.7
v -0.6 1.8 0.4
v -0.6 2.7 0.4
v -0.5 0.6 0.4
v -0.5 0.7 0.4
v -0.5 0.9 0.4
v -0.5 1.8 0.4
v -0.5 2.7 0.4
v -0.2 0.6 0.4
v -0.2 0.7 0.4
v -0.2 0.9 0.4
v -0.2 1.8 0.4
v -0.2 2.7 0.4
v -0.1 1.8 0.4
v -0.1 2.7 0.4
v -0.5 1.8 0.3
v -0.5 2.7 0.3
v -0.2 1.8 0.3
v -0.2 2.7 0.3
v -0.5 0.6 1
v -0.2 0.6 1
v -0.5 0.6 0.4
v -0.2 0.6 0.4
v -0.5 1.8 0.8
v -0.2 1.8 0.8
v -0.6 1.8 0.7
v -0.5 1.8 0.7
v -0.2 1.8 0.7
v -0.1 1.8 0.7
v -0.6 1.8 0.4
v -0.5 1.8 0.4
v -0.2 1.8 0.4
v -0.1 1.8 0.4
v -0.5 1.8 0.3
v -0.2 1.8 0.3
v -0.5 0.8 1
v -0.2 0.8 1
v -0.5 0.8 0.9
v -0.2 0.8 0.9
v -0.5 0.9 0.9
v -0.2 0.9 0.9
v -0.5 0.9 0.7
v -0.2 0.9 0.7
v -0.5 2.7 0.8
v -0.2 2.7 0.8
v -0.6 2.7 0.7
v -0.5 2.7 0.7
v -0.2 2.7 0.7
v -0.1 2.7 0.7
v -0.6 2.7 0.4
v -0.5 2.7 0.4
v -0.2 2.7 0.4
v -0.1 2.7 0.4
v -0.5 2.7 0.3
v -0.2 2.7 0.3

# faces
f 3/2/1 2/2/1 1/2/1
f 4/2/1 2/2/1 3/2/1
f 7/3/1 6/3/1 5/3/1
f 8/3/1 6/3/1 7/3/1
f 9/4/1 8/4/1 7/4/1
f 10/4/1 8/4/1 9/4/1
f 11/4/1 8/4/1 10/4/1
f 12/4/1 8/4/1 11/4/1
f 13/4/1 8/4/1 12/4/1
f 15/1/1 13/1/1 12/1/1
f 16/1/1 13/1/1 15/1/1
f 18/2/1 15/2/1 14/2/1
f 19/2/1 15/2/1 18/2/1
f 20/2/1 17/2/1 16/2/1
f 21/2/1 17/2/1 20/2/1
f 22/3/2 23/3/2 24/3/2
f 24/3/2 23/3/2 25/3/2
f 24/4/2 25/4/2 26/4/2
f 26/4/2 25/4/2 27/4/2
f 27/4/2 25/4/2 28/4/2
f 28/4/2 25/4/2 29/4/2
f 29/4/2 25/4/2 30/4/2
f 29/1/2 30/1/2 32/1/2
f 32/1/2 30/1/2 33/1/2
f 31/2/2 32/2/2 35/2/2
f 35/2/2 32/2/2 36/2/2
f 33/2/2 34/2/2 37/2/2
f 37/2/2 34/2/2 38/2/2
f 39/2/2 40/2/2 41/2/2
f 41/2/2 40/2/2 42/2/2
f 46/3/3 44/3/3 43/3/3
f 47/4/3 45/4/3 44/4/3
f 47/3/3 44/3/3 46/3/3
f 48/4/3 45/4/3 47/4/3
f 51/4/3 50/4/3 49/4/3
f 52/4/3 50/4/3 51/4/3
f 55/2/3 54/2/3 53/2/3
f 56/2/3 54/2/3 55/2/3
f 60/2/3 58/2/3 57/2/3
f 61/2/3 58/2/3 60/2/3
f 62/1/3 60/1/3 59/1/3
f 63/1/3 60/1/3 62/1/3
f 65/2/3 64/2/3 63/2/3
f 66/2/3 64/2/3 65/2/3
f 67/2/4 68/2/4 72/2/4
f 72/2/4 68/2/4 73/2/4
f 69/3/4 70/3/4 74/3/4
f 70/4/4 71/4/4 75/4/4
f 74/3/4 70/3/4 75/3/4
f 71/1/4 72/1/4 76/1/4
f 75/4/4 71/4/4 76/4/4
f 76/1/4 72/1/4 77/1/4
f 77/2/4 78/2/4 79/2/4
f 79/2/4 78/2/4 80/2/4
f 81/2/4 82/2/4 83/2/4
f 83/2/4 82/2/4 84/2/4
f 87/3/5 86/3/5 85/3/5
f 88/3/5 86/3/5 87/3/5
f 92/2/5 90/2/5 89/2/5
f 93/2/5 90/2/5 92/2/5
f 95/2/5 92/2/5 91/2/5
f 96/2/5 92/2/5 95/2/5
f 97/2/5 94/2/5 93/2/5
f 98/2/5 94/2/5 97/2/5
f 99/2/5 97/2/5 96/2/5
f 100/2/5 97/2/5 99/2/5
f 101/4/6 102/4/6 103/4/6
f 103/4/6 102/4/6 104/4/6
f 105/4/6 106/4/6 107/4/6
f 107/4/6 106/4/6 108/4/6
f 109/2/6 110/2/6 112/2/6
f 112/2/6 110/2/6 113/2/6
f 111/2/6 112/2/6 115/2/6
f 113/2/6 114/2/6 115/2/6
f 112/2/6 113/2/6 115/2/6
f 115/2/6 114/2/6 116/2/6
f 116/2/6 114/2/6 117/2/6
f 117/2/6 114/2/6 118/2/6
f 116/2/6 117/2/6 119/2/6
f 119/2/6 117/2/6 120/2/6
