# MagicaVoxel @ Ephtracy

# group
o 

# material
mtllib deadly_churros.mtl
usemtl palette

# normals
vn -1 0 0
vn 1 0 0
vn 0 0 1
vn 0 0 -1
vn 0 -1 0
vn 0 1 0

# texcoords
vt 0.0527344 0.5
vt 0.990234 0.5

# verts
v -10.4 0 0.400001
v -10.4 0 -0.4
v -10.4 0.8 0.400001
v -10.4 0.8 -0.4
v -0.700001 0 0.500001
v -0.700001 0 0.400001
v -0.700001 0 -0.4
v -0.700001 0 -0.499999
v -0.700001 0.8 0.500001
v -0.700001 0.8 0.400001
v -0.700001 0.8 -0.4
v -0.700001 0.8 -0.499999
v -0.6 0 0.6
v -0.6 0 0.500001
v -0.6 0 -0.499999
v -0.6 0 -0.599999
v -0.6 0.8 0.6
v -0.6 0.8 0.500001
v -0.6 0.8 -0.499999
v -0.6 0.8 -0.599999
v -0.500001 0 0.700001
v -0.500001 0 0.6
v -0.500001 0 -0.599999
v -0.500001 0 -0.699999
v -0.500001 0.8 0.700001
v -0.500001 0.8 0.6
v -0.500001 0.8 -0.599999
v -0.500001 0.8 -0.699999
v -0.400001 0 10.4
v -0.400001 0 0.800001
v -0.400001 0 0.700001
v -0.400001 0 -0.699999
v -0.400001 0 -0.799999
v -0.400001 0 -10.4
v -0.400001 0.8 10.4
v -0.400001 0.8 0.800001
v -0.400001 0.8 0.700001
v -0.400001 0.8 -0.699999
v -0.400001 0.8 -0.799999
v -0.400001 0.8 -10.4
v 0.4 0 10.4
v 0.4 0 0.800001
v 0.4 0 0.700001
v 0.4 0 -0.699999
v 0.4 0 -0.799999
v 0.4 0 -10.4
v 0.4 0.8 10.4
v 0.4 0.8 0.800001
v 0.4 0.8 0.700001
v 0.4 0.8 -0.699999
v 0.4 0.8 -0.799999
v 0.4 0.8 -10.4
v 0.499999 0 0.700001
v 0.499999 0 0.6
v 0.499999 0 -0.599999
v 0.499999 0 -0.699999
v 0.499999 0.8 0.700001
v 0.499999 0.8 0.6
v 0.499999 0.8 -0.599999
v 0.499999 0.8 -0.699999
v 0.599999 0 0.6
v 0.599999 0 0.500001
v 0.599999 0 -0.499999
v 0.599999 0 -0.599999
v 0.599999 0.8 0.6
v 0.599999 0.8 0.500001
v 0.599999 0.8 -0.499999
v 0.599999 0.8 -0.599999
v 0.699999 0 0.500001
v 0.699999 0 0.400001
v 0.699999 0 -0.4
v 0.699999 0 -0.499999
v 0.699999 0.8 0.500001
v 0.699999 0.8 0.400001
v 0.699999 0.8 -0.4
v 0.699999 0.8 -0.499999
v 10.4 0 0.400001
v 10.4 0 -0.4
v 10.4 0.8 0.400001
v 10.4 0.8 -0.4
v -0.400001 0 10.4
v -0.400001 0.8 10.4
v 0.4 0 10.4
v 0.4 0.8 10.4
v -0.500001 0 0.700001
v -0.500001 0.8 0.700001
v -0.400001 0 0.700001
v -0.400001 0.8 0.700001
v 0.4 0 0.700001
v 0.4 0.8 0.700001
v 0.499999 0 0.700001
v 0.499999 0.8 0.700001
v -0.6 0 0.6
v -0.6 0.8 0.6
v -0.500001 0 0.6
v -0.500001 0.8 0.6
v 0.499999 0 0.6
v 0.499999 0.8 0.6
v 0.599999 0 0.6
v 0.599999 0.8 0.6
v -0.700001 0 0.500001
v -0.700001 0.8 0.500001
v -0.6 0 0.500001
v -0.6 0.8 0.500001
v 0.599999 0 0.500001
v 0.599999 0.8 0.500001
v 0.699999 0 0.500001
v 0.699999 0.8 0.500001
v -10.4 0 0.400001
v -10.4 0.8 0.400001
v -0.800001 0 0.400001
v -0.800001 0.8 0.400001
v -0.700001 0 0.400001
v -0.700001 0.8 0.400001
v 0.699999 0 0.400001
v 0.699999 0.8 0.400001
v 0.799999 0 0.400001
v 0.799999 0.8 0.400001
v 10.4 0 0.400001
v 10.4 0.8 0.400001
v -10.4 0 -0.4
v -10.4 0.8 -0.4
v -0.800001 0 -0.4
v -0.800001 0.8 -0.4
v -0.700001 0 -0.4
v -0.700001 0.8 -0.4
v 0.699999 0 -0.4
v 0.699999 0.8 -0.4
v 0.799999 0 -0.4
v 0.799999 0.8 -0.4
v 10.4 0 -0.4
v 10.4 0.8 -0.4
v -0.700001 0 -0.499999
v -0.700001 0.8 -0.499999
v -0.6 0 -0.499999
v -0.6 0.8 -0.499999
v 0.599999 0 -0.499999
v 0.599999 0.8 -0.499999
v 0.699999 0 -0.499999
v 0.699999 0.8 -0.499999
v -0.6 0 -0.599999
v -0.6 0.8 -0.599999
v -0.500001 0 -0.599999
v -0.500001 0.8 -0.599999
v 0.499999 0 -0.599999
v 0.499999 0.8 -0.599999
v 0.599999 0 -0.599999
v 0.599999 0.8 -0.599999
v -0.500001 0 -0.699999
v -0.500001 0.8 -0.699999
v -0.400001 0 -0.699999
v -0.400001 0.8 -0.699999
v 0.4 0 -0.699999
v 0.4 0.8 -0.699999
v 0.499999 0 -0.699999
v 0.499999 0.8 -0.699999
v -0.400001 0 -10.4
v -0.400001 0.8 -10.4
v 0.4 0 -10.4
v 0.4 0.8 -10.4
v -0.400001 0 10.4
v 0.4 0 10.4
v -0.400001 0 0.800001
v 0.4 0 0.800001
v -0.500001 0 0.700001
v -0.400001 0 0.700001
v 0.4 0 0.700001
v 0.499999 0 0.700001
v -0.6 0 0.6
v -0.500001 0 0.6
v 0.499999 0 0.6
v 0.599999 0 0.6
v -0.700001 0 0.500001
v -0.6 0 0.500001
v 0.599999 0 0.500001
v 0.699999 0 0.500001
v -10.4 0 0.400001
v -0.800001 0 0.400001
v -0.700001 0 0.400001
v 0.699999 0 0.400001
v 0.799999 0 0.400001
v 10.4 0 0.400001
v -10.4 0 -0.4
v -0.800001 0 -0.4
v -0.700001 0 -0.4
v 0.699999 0 -0.4
v 0.799999 0 -0.4
v 10.4 0 -0.4
v -0.700001 0 -0.499999
v -0.6 0 -0.499999
v 0.599999 0 -0.499999
v 0.699999 0 -0.499999
v -0.6 0 -0.599999
v -0.500001 0 -0.599999
v 0.499999 0 -0.599999
v 0.599999 0 -0.599999
v -0.500001 0 -0.699999
v -0.400001 0 -0.699999
v 0.4 0 -0.699999
v 0.499999 0 -0.699999
v -0.400001 0 -0.799999
v 0.4 0 -0.799999
v -0.400001 0 -10.4
v 0.4 0 -10.4
v -0.400001 0.8 10.4
v 0.4 0.8 10.4
v -0.400001 0.8 0.800001
v 0.4 0.8 0.800001
v -0.500001 0.8 0.700001
v -0.400001 0.8 0.700001
v 0.4 0.8 0.700001
v 0.499999 0.8 0.700001
v -0.6 0.8 0.6
v -0.500001 0.8 0.6
v 0.499999 0.8 0.6
v 0.599999 0.8 0.6
v -0.700001 0.8 0.500001
v -0.6 0.8 0.500001
v 0.599999 0.8 0.500001
v 0.699999 0.8 0.500001
v -10.4 0.8 0.400001
v -0.800001 0.8 0.400001
v -0.700001 0.8 0.400001
v 0.699999 0.8 0.400001
v 0.799999 0.8 0.400001
v 10.4 0.8 0.400001
v -10.4 0.8 -0.4
v -0.800001 0.8 -0.4
v -0.700001 0.8 -0.4
v 0.699999 0.8 -0.4
v 0.799999 0.8 -0.4
v 10.4 0.8 -0.4
v -0.700001 0.8 -0.499999
v -0.6 0.8 -0.499999
v 0.599999 0.8 -0.499999
v 0.699999 0.8 -0.499999
v -0.6 0.8 -0.599999
v -0.500001 0.8 -0.599999
v 0.499999 0.8 -0.599999
v 0.599999 0.8 -0.599999
v -0.500001 0.8 -0.699999
v -0.400001 0.8 -0.699999
v 0.4 0.8 -0.699999
v 0.499999 0.8 -0.699999
v -0.400001 0.8 -0.799999
v 0.4 0.8 -0.799999
v -0.400001 0.8 -10.4
v 0.4 0.8 -10.4

# faces
f 3/1/1 2/1/1 1/1/1
f 4/1/1 2/1/1 3/1/1
f 9/2/1 6/2/1 5/2/1
f 10/2/1 6/2/1 9/2/1
f 11/2/1 8/2/1 7/2/1
f 12/2/1 8/2/1 11/2/1
f 17/2/1 14/2/1 13/2/1
f 18/2/1 14/2/1 17/2/1
f 19/2/1 16/2/1 15/2/1
f 20/2/1 16/2/1 19/2/1
f 25/2/1 22/2/1 21/2/1
f 26/2/1 22/2/1 25/2/1
f 27/2/1 24/2/1 23/2/1
f 28/2/1 24/2/1 27/2/1
f 35/1/1 30/1/1 29/1/1
f 36/2/1 31/2/1 30/2/1
f 36/1/1 30/1/1 35/1/1
f 37/2/1 31/2/1 36/2/1
f 38/2/1 33/2/1 32/2/1
f 39/1/1 34/1/1 33/1/1
f 39/2/1 33/2/1 38/2/1
f 40/1/1 34/1/1 39/1/1
f 41/1/2 42/1/2 47/1/2
f 42/2/2 43/2/2 48/2/2
f 47/1/2 42/1/2 48/1/2
f 48/2/2 43/2/2 49/2/2
f 44/2/2 45/2/2 50/2/2
f 45/1/2 46/1/2 51/1/2
f 50/2/2 45/2/2 51/2/2
f 51/1/2 46/1/2 52/1/2
f 53/2/2 54/2/2 57/2/2
f 57/2/2 54/2/2 58/2/2
f 55/2/2 56/2/2 59/2/2
f 59/2/2 56/2/2 60/2/2
f 61/2/2 62/2/2 65/2/2
f 65/2/2 62/2/2 66/2/2
f 63/2/2 64/2/2 67/2/2
f 67/2/2 64/2/2 68/2/2
f 69/2/2 70/2/2 73/2/2
f 73/2/2 70/2/2 74/2/2
f 71/2/2 72/2/2 75/2/2
f 75/2/2 72/2/2 76/2/2
f 77/1/2 78/1/2 79/1/2
f 79/1/2 78/1/2 80/1/2
f 83/1/3 82/1/3 81/1/3
f 84/1/3 82/1/3 83/1/3
f 87/2/3 86/2/3 85/2/3
f 88/2/3 86/2/3 87/2/3
f 91/2/3 90/2/3 89/2/3
f 92/2/3 90/2/3 91/2/3
f 95/2/3 94/2/3 93/2/3
f 96/2/3 94/2/3 95/2/3
f 99/2/3 98/2/3 97/2/3
f 100/2/3 98/2/3 99/2/3
f 103/2/3 102/2/3 101/2/3
f 104/2/3 102/2/3 103/2/3
f 107/2/3 106/2/3 105/2/3
f 108/2/3 106/2/3 107/2/3
f 111/1/3 110/1/3 109/1/3
f 112/1/3 110/1/3 111/1/3
f 113/2/3 112/2/3 111/2/3
f 114/2/3 112/2/3 113/2/3
f 117/2/3 116/2/3 115/2/3
f 118/2/3 116/2/3 117/2/3
f 119/1/3 118/1/3 117/1/3
f 120/1/3 118/1/3 119/1/3
f 121/1/4 122/1/4 123/1/4
f 123/1/4 122/1/4 124/1/4
f 123/2/4 124/2/4 125/2/4
f 125/2/4 124/2/4 126/2/4
f 127/2/4 128/2/4 129/2/4
f 129/2/4 128/2/4 130/2/4
f 129/1/4 130/1/4 131/1/4
f 131/1/4 130/1/4 132/1/4
f 133/2/4 134/2/4 135/2/4
f 135/2/4 134/2/4 136/2/4
f 137/2/4 138/2/4 139/2/4
f 139/2/4 138/2/4 140/2/4
f 141/2/4 142/2/4 143/2/4
f 143/2/4 142/2/4 144/2/4
f 145/2/4 146/2/4 147/2/4
f 147/2/4 146/2/4 148/2/4
f 149/2/4 150/2/4 151/2/4
f 151/2/4 150/2/4 152/2/4
f 153/2/4 154/2/4 155/2/4
f 155/2/4 154/2/4 156/2/4
f 157/1/4 158/1/4 159/1/4
f 159/1/4 158/1/4 160/1/4
f 163/1/5 162/1/5 161/1/5
f 164/1/5 162/1/5 163/1/5
f 166/2/5 164/2/5 163/2/5
f 167/2/5 164/2/5 166/2/5
f 170/2/5 167/2/5 166/2/5
f 170/2/5 168/2/5 167/2/5
f 170/2/5 166/2/5 165/2/5
f 171/2/5 168/2/5 170/2/5
f 174/2/5 170/2/5 169/2/5
f 174/2/5 172/2/5 171/2/5
f 174/2/5 171/2/5 170/2/5
f 175/2/5 172/2/5 174/2/5
f 179/2/5 174/2/5 173/2/5
f 179/2/5 175/2/5 174/2/5
f 179/2/5 176/2/5 175/2/5
f 180/2/5 176/2/5 179/2/5
f 183/1/5 178/1/5 177/1/5
f 184/2/5 179/2/5 178/2/5
f 184/1/5 178/1/5 183/1/5
f 184/2/5 180/2/5 179/2/5
f 184/2/5 181/2/5 180/2/5
f 185/2/5 181/2/5 184/2/5
f 186/2/5 181/2/5 185/2/5
f 187/1/5 182/1/5 181/1/5
f 187/2/5 181/2/5 186/2/5
f 188/1/5 182/1/5 187/1/5
f 189/2/5 186/2/5 185/2/5
f 190/2/5 186/2/5 189/2/5
f 191/2/5 186/2/5 190/2/5
f 192/2/5 186/2/5 191/2/5
f 193/2/5 191/2/5 190/2/5
f 194/2/5 191/2/5 193/2/5
f 195/2/5 191/2/5 194/2/5
f 196/2/5 191/2/5 195/2/5
f 197/2/5 195/2/5 194/2/5
f 198/2/5 195/2/5 197/2/5
f 199/2/5 195/2/5 198/2/5
f 200/2/5 195/2/5 199/2/5
f 201/2/5 199/2/5 198/2/5
f 202/2/5 199/2/5 201/2/5
f 203/1/5 202/1/5 201/1/5
f 204/1/5 202/1/5 203/1/5
f 205/1/6 206/1/6 207/1/6
f 207/1/6 206/1/6 208/1/6
f 207/2/6 208/2/6 210/2/6
f 210/2/6 208/2/6 211/2/6
f 210/2/6 211/2/6 214/2/6
f 211/2/6 212/2/6 214/2/6
f 209/2/6 210/2/6 214/2/6
f 214/2/6 212/2/6 215/2/6
f 213/2/6 214/2/6 218/2/6
f 215/2/6 216/2/6 218/2/6
f 214/2/6 215/2/6 218/2/6
f 218/2/6 216/2/6 219/2/6
f 217/2/6 218/2/6 223/2/6
f 218/2/6 219/2/6 223/2/6
f 219/2/6 220/2/6 223/2/6
f 223/2/6 220/2/6 224/2/6
f 221/1/6 222/1/6 227/1/6
f 222/2/6 223/2/6 228/2/6
f 227/1/6 222/1/6 228/1/6
f 223/2/6 224/2/6 228/2/6
f 224/2/6 225/2/6 228/2/6
f 228/2/6 225/2/6 229/2/6
f 229/2/6 225/2/6 230/2/6
f 225/1/6 226/1/6 231/1/6
f 230/2/6 225/2/6 231/2/6
f 231/1/6 226/1/6 232/1/6
f 229/2/6 230/2/6 233/2/6
f 233/2/6 230/2/6 234/2/6
f 234/2/6 230/2/6 235/2/6
f 235/2/6 230/2/6 236/2/6
f 234/2/6 235/2/6 237/2/6
f 237/2/6 235/2/6 238/2/6
f 238/2/6 235/2/6 239/2/6
f 239/2/6 235/2/6 240/2/6
f 238/2/6 239/2/6 241/2/6
f 241/2/6 239/2/6 242/2/6
f 242/2/6 239/2/6 243/2/6
f 243/2/6 239/2/6 244/2/6
f 242/2/6 243/2/6 245/2/6
f 245/2/6 243/2/6 246/2/6
f 245/1/6 246/1/6 247/1/6
f 247/1/6 246/1/6 248/1/6
