# MagicaVoxel @ Ephtracy

# group
o 

# material
mtllib spike_block.mtl
usemtl palette

# normals
vn -1 0 0
vn 1 0 0
vn 0 0 1
vn 0 0 -1
vn 0 -1 0
vn 0 1 0

# texcoords
vt 0.974609 0.5
vt 0.978516 0.5
vt 0.994141 0.5

# verts
v -0.8 0 0.8
v -0.8 0 -0.8
v -0.8 0.1 0
v -0.8 0.1 -0.8
v -0.8 0.4 0.8
v -0.8 0.4 0
v -0.8 0.4 -0.8
v -0.8 0.8 0.8
v -0.8 0.8 0
v -0.8 0.8 -0.8
v -0.8 1.2 0.8
v -0.8 1.2 0
v -0.8 1.2 -0.8
v -0.8 1.5 0.8
v -0.8 1.5 0
v -0.8 1.6 0.8
v -0.8 1.6 -0.8
v 0.8 0 0.8
v 0.8 0 -0.8
v 0.8 0.1 0.8
v 0.8 0.1 0
v 0.8 0.4 0.8
v 0.8 0.4 0
v 0.8 0.4 -0.8
v 0.8 0.8 0.8
v 0.8 0.8 0
v 0.8 0.8 -0.8
v 0.8 1.2 0.8
v 0.8 1.2 0
v 0.8 1.2 -0.8
v 0.8 1.5 0
v 0.8 1.5 -0.8
v 0.8 1.6 0.8
v 0.8 1.6 -0.8
v -0.8 0 0.8
v -0.8 0.4 0.8
v -0.8 0.8 0.8
v -0.8 1.2 0.8
v -0.8 1.5 0.8
v -0.8 1.6 0.8
v 0 0.1 0.8
v 0 0.4 0.8
v 0 0.8 0.8
v 0 1.2 0.8
v 0 1.5 0.8
v 0.8 0 0.8
v 0.8 0.1 0.8
v 0.8 0.4 0.8
v 0.8 0.8 0.8
v 0.8 1.2 0.8
v 0.8 1.6 0.8
v -0.8 0 -0.8
v -0.8 0.1 -0.8
v -0.8 0.4 -0.8
v -0.8 0.8 -0.8
v -0.8 1.2 -0.8
v -0.8 1.6 -0.8
v 0 0.1 -0.8
v 0 0.4 -0.8
v 0 0.8 -0.8
v 0 1.2 -0.8
v 0 1.5 -0.8
v 0.8 0 -0.8
v 0.8 0.4 -0.8
v 0.8 0.8 -0.8
v 0.8 1.2 -0.8
v 0.8 1.5 -0.8
v 0.8 1.6 -0.8
v -0.8 0 0.8
v 0.8 0 0.8
v -0.7 0 0.7
v 0.7 0 0.7
v -0.7 0 -0.7
v 0.7 0 -0.7
v -0.8 0 -0.8
v 0.8 0 -0.8
v -0.8 1.6 0.8
v 0.8 1.6 0.8
v -0.7 1.6 0.7
v 0.7 1.6 0.7
v -0.4 1.6 0.6
v -0.3 1.6 0.6
v 0.3 1.6 0.6
v 0.4 1.6 0.6
v -0.5 1.6 0.5
v -0.4 1.6 0.5
v -0.3 1.6 0.5
v -0.2 1.6 0.5
v 0.2 1.6 0.5
v 0.3 1.6 0.5
v 0.4 1.6 0.5
v 0.5 1.6 0.5
v -0.6 1.6 0.4
v -0.5 1.6 0.4
v -0.2 1.6 0.4
v -0.1 1.6 0.4
v 0.1 1.6 0.4
v 0.2 1.6 0.4
v 0.5 1.6 0.4
v 0.6 1.6 0.4
v -0.6 1.6 0.3
v -0.5 1.6 0.3
v -0.2 1.6 0.3
v -0.1 1.6 0.3
v 0.1 1.6 0.3
v 0.2 1.6 0.3
v 0.5 1.6 0.3
v 0.6 1.6 0.3
v -0.5 1.6 0.2
v -0.4 1.6 0.2
v -0.3 1.6 0.2
v -0.2 1.6 0.2
v 0.2 1.6 0.2
v 0.3 1.6 0.2
v 0.4 1.6 0.2
v 0.5 1.6 0.2
v -0.4 1.6 0.1
v -0.3 1.6 0.1
v 0.3 1.6 0.1
v 0.4 1.6 0.1
v -0.4 1.6 -0.1
v -0.3 1.6 -0.1
v 0.3 1.6 -0.1
v 0.4 1.6 -0.1
v -0.5 1.6 -0.2
v -0.4 1.6 -0.2
v -0.3 1.6 -0.2
v -0.2 1.6 -0.2
v 0.2 1.6 -0.2
v 0.3 1.6 -0.2
v 0.4 1.6 -0.2
v 0.5 1.6 -0.2
v -0.6 1.6 -0.3
v -0.5 1.6 -0.3
v -0.2 1.6 -0.3
v -0.1 1.6 -0.3
v 0.1 1.6 -0.3
v 0.2 1.6 -0.3
v 0.5 1.6 -0.3
v 0.6 1.6 -0.3
v -0.6 1.6 -0.4
v -0.5 1.6 -0.4
v -0.2 1.6 -0.4
v -0.1 1.6 -0.4
v 0.1 1.6 -0.4
v 0.2 1.6 -0.4
v 0.5 1.6 -0.4
v 0.6 1.6 -0.4
v -0.5 1.6 -0.5
v -0.4 1.6 -0.5
v -0.3 1.6 -0.5
v -0.2 1.6 -0.5
v 0.2 1.6 -0.5
v 0.3 1.6 -0.5
v 0.4 1.6 -0.5
v 0.5 1.6 -0.5
v -0.4 1.6 -0.6
v -0.3 1.6 -0.6
v 0.3 1.6 -0.6
v 0.4 1.6 -0.6
v -0.7 1.6 -0.7
v 0.7 1.6 -0.7
v -0.8 1.6 -0.8
v 0.8 1.6 -0.8

# faces
f 3/2/1 2/2/1 1/2/1
f 4/2/1 2/2/1 3/2/1
f 5/2/1 3/2/1 1/2/1
f 6/1/1 4/1/1 3/1/1
f 6/2/1 3/2/1 5/2/1
f 7/1/1 4/1/1 6/1/1
f 8/1/1 6/1/1 5/1/1
f 9/2/1 7/2/1 6/2/1
f 9/1/1 6/1/1 8/1/1
f 10/2/1 7/2/1 9/2/1
f 11/2/1 9/2/1 8/2/1
f 12/1/1 10/1/1 9/1/1
f 12/2/1 9/2/1 11/2/1
f 13/1/1 10/1/1 12/1/1
f 14/1/1 12/1/1 11/1/1
f 15/2/1 13/2/1 12/2/1
f 15/1/1 12/1/1 14/1/1
f 16/2/1 15/2/1 14/2/1
f 17/2/1 13/2/1 15/2/1
f 17/2/1 15/2/1 16/2/1
f 18/2/2 19/2/2 20/2/2
f 20/2/2 19/2/2 21/2/2
f 20/1/2 21/1/2 22/1/2
f 21/2/2 19/2/2 23/2/2
f 22/1/2 21/1/2 23/1/2
f 23/2/2 19/2/2 24/2/2
f 22/2/2 23/2/2 25/2/2
f 23/1/2 24/1/2 26/1/2
f 25/2/2 23/2/2 26/2/2
f 26/1/2 24/1/2 27/1/2
f 25/1/2 26/1/2 28/1/2
f 26/2/2 27/2/2 29/2/2
f 28/1/2 26/1/2 29/1/2
f 29/2/2 27/2/2 30/2/2
f 28/2/2 29/2/2 31/2/2
f 29/1/2 30/1/2 31/1/2
f 31/1/2 30/1/2 32/1/2
f 28/2/2 31/2/2 33/2/2
f 31/2/2 32/2/2 33/2/2
f 33/2/2 32/2/2 34/2/2
f 41/2/3 36/2/3 35/2/3
f 42/1/3 37/1/3 36/1/3
f 42/2/3 36/2/3 41/2/3
f 43/2/3 38/2/3 37/2/3
f 43/1/3 37/1/3 42/1/3
f 44/1/3 39/1/3 38/1/3
f 44/2/3 38/2/3 43/2/3
f 45/2/3 40/2/3 39/2/3
f 45/1/3 39/1/3 44/1/3
f 46/2/3 41/2/3 35/2/3
f 47/1/3 42/1/3 41/1/3
f 47/2/3 41/2/3 46/2/3
f 48/2/3 43/2/3 42/2/3
f 48/1/3 42/1/3 47/1/3
f 49/1/3 44/1/3 43/1/3
f 49/2/3 43/2/3 48/2/3
f 50/2/3 45/2/3 44/2/3
f 50/1/3 44/1/3 49/1/3
f 51/2/3 40/2/3 45/2/3
f 51/2/3 45/2/3 50/2/3
f 52/2/4 53/2/4 58/2/4
f 53/1/4 54/1/4 58/1/4
f 54/2/4 55/2/4 59/2/4
f 58/1/4 54/1/4 59/1/4
f 55/1/4 56/1/4 60/1/4
f 59/2/4 55/2/4 60/2/4
f 56/2/4 57/2/4 61/2/4
f 60/1/4 56/1/4 61/1/4
f 61/2/4 57/2/4 62/2/4
f 58/2/4 59/2/4 63/2/4
f 52/2/4 58/2/4 63/2/4
f 59/1/4 60/1/4 64/1/4
f 63/2/4 59/2/4 64/2/4
f 60/2/4 61/2/4 65/2/4
f 64/1/4 60/1/4 65/1/4
f 61/1/4 62/1/4 66/1/4
f 65/2/4 61/2/4 66/2/4
f 62/2/4 57/2/4 67/2/4
f 66/1/4 62/1/4 67/1/4
f 67/2/4 57/2/4 68/2/4
f 71/2/5 70/2/5 69/2/5
f 72/2/5 70/2/5 71/2/5
f 73/2/5 71/2/5 69/2/5
f 73/1/5 72/1/5 71/1/5
f 74/2/5 70/2/5 72/2/5
f 74/1/5 72/1/5 73/1/5
f 75/2/5 73/2/5 69/2/5
f 75/2/5 74/2/5 73/2/5
f 76/2/5 70/2/5 74/2/5
f 76/2/5 74/2/5 75/2/5
f 77/2/6 78/2/6 79/2/6
f 79/2/6 78/2/6 80/2/6
f 79/1/6 80/1/6 81/1/6
f 81/1/6 80/1/6 82/1/6
f 82/1/6 80/1/6 83/1/6
f 83/1/6 80/1/6 84/1/6
f 79/1/6 81/1/6 85/1/6
f 81/3/6 82/3/6 86/3/6
f 85/1/6 81/1/6 86/1/6
f 82/1/6 83/1/6 87/1/6
f 86/3/6 82/3/6 87/3/6
f 87/1/6 83/1/6 88/1/6
f 88/1/6 83/1/6 89/1/6
f 83/3/6 84/3/6 90/3/6
f 89/1/6 83/1/6 90/1/6
f 84/1/6 80/1/6 91/1/6
f 90/3/6 84/3/6 91/3/6
f 91/1/6 80/1/6 92/1/6
f 79/1/6 85/1/6 93/1/6
f 85/3/6 86/3/6 94/3/6
f 93/1/6 85/1/6 94/1/6
f 86/3/6 87/3/6 94/3/6
f 87/3/6 88/3/6 94/3/6
f 88/1/6 89/1/6 95/1/6
f 94/3/6 88/3/6 95/3/6
f 95/1/6 89/1/6 96/1/6
f 96/1/6 89/1/6 97/1/6
f 89/3/6 90/3/6 98/3/6
f 97/1/6 89/1/6 98/1/6
f 91/3/6 92/3/6 98/3/6
f 90/3/6 91/3/6 98/3/6
f 92/1/6 80/1/6 99/1/6
f 98/3/6 92/3/6 99/3/6
f 99/1/6 80/1/6 100/1/6
f 79/1/6 93/1/6 101/1/6
f 93/3/6 94/3/6 101/3/6
f 95/3/6 96/3/6 101/3/6
f 94/3/6 95/3/6 101/3/6
f 101/3/6 96/3/6 102/3/6
f 102/3/6 96/3/6 103/3/6
f 96/1/6 97/1/6 104/1/6
f 103/3/6 96/3/6 104/3/6
f 97/3/6 98/3/6 105/3/6
f 104/1/6 97/1/6 105/1/6
f 99/3/6 100/3/6 105/3/6
f 98/3/6 99/3/6 105/3/6
f 105/3/6 100/3/6 106/3/6
f 106/3/6 100/3/6 107/3/6
f 100/1/6 80/1/6 108/1/6
f 107/3/6 100/3/6 108/3/6
f 102/3/6 103/3/6 109/3/6
f 101/1/6 102/1/6 109/1/6
f 109/3/6 103/3/6 110/3/6
f 110/3/6 103/3/6 111/3/6
f 103/1/6 104/1/6 112/1/6
f 111/3/6 103/3/6 112/3/6
f 104/1/6 105/1/6 112/1/6
f 105/1/6 106/1/6 112/1/6
f 106/3/6 107/3/6 113/3/6
f 112/1/6 106/1/6 113/1/6
f 113/3/6 107/3/6 114/3/6
f 114/3/6 107/3/6 115/3/6
f 107/1/6 108/1/6 116/1/6
f 115/3/6 107/3/6 116/3/6
f 110/3/6 111/3/6 117/3/6
f 109/1/6 110/1/6 117/1/6
f 111/1/6 112/1/6 118/1/6
f 117/3/6 111/3/6 118/3/6
f 112/1/6 113/1/6 118/1/6
f 113/1/6 114/1/6 118/1/6
f 114/3/6 115/3/6 119/3/6
f 118/1/6 114/1/6 119/1/6
f 115/1/6 116/1/6 120/1/6
f 119/3/6 115/3/6 120/3/6
f 109/1/6 117/1/6 121/1/6
f 117/1/6 118/1/6 121/1/6
f 119/1/6 120/1/6 121/1/6
f 118/1/6 119/1/6 121/1/6
f 121/1/6 120/1/6 122/1/6
f 122/1/6 120/1/6 123/1/6
f 120/1/6 116/1/6 124/1/6
f 123/1/6 120/1/6 124/1/6
f 101/1/6 109/1/6 125/1/6
f 109/1/6 121/1/6 125/1/6
f 121/3/6 122/3/6 126/3/6
f 125/1/6 121/1/6 126/1/6
f 122/1/6 123/1/6 127/1/6
f 126/3/6 122/3/6 127/3/6
f 127/1/6 123/1/6 128/1/6
f 128/1/6 123/1/6 129/1/6
f 123/3/6 124/3/6 130/3/6
f 129/1/6 123/1/6 130/1/6
f 124/1/6 116/1/6 131/1/6
f 130/3/6 124/3/6 131/3/6
f 116/1/6 108/1/6 132/1/6
f 131/1/6 116/1/6 132/1/6
f 79/1/6 101/1/6 133/1/6
f 101/1/6 125/1/6 133/1/6
f 125/3/6 126/3/6 134/3/6
f 133/1/6 125/1/6 134/1/6
f 126/3/6 127/3/6 134/3/6
f 127/3/6 128/3/6 134/3/6
f 128/1/6 129/1/6 135/1/6
f 134/3/6 128/3/6 135/3/6
f 135/1/6 129/1/6 136/1/6
f 136/1/6 129/1/6 137/1/6
f 130/3/6 131/3/6 138/3/6
f 137/1/6 129/1/6 138/1/6
f 129/3/6 130/3/6 138/3/6
f 131/3/6 132/3/6 138/3/6
f 132/1/6 108/1/6 139/1/6
f 138/3/6 132/3/6 139/3/6
f 108/1/6 80/1/6 140/1/6
f 139/1/6 108/1/6 140/1/6
f 79/1/6 133/1/6 141/1/6
f 135/3/6 136/3/6 141/3/6
f 133/3/6 134/3/6 141/3/6
f 134/3/6 135/3/6 141/3/6
f 141/3/6 136/3/6 142/3/6
f 142/3/6 136/3/6 143/3/6
f 136/1/6 137/1/6 144/1/6
f 143/3/6 136/3/6 144/3/6
f 138/3/6 139/3/6 145/3/6
f 144/1/6 137/1/6 145/1/6
f 139/3/6 140/3/6 145/3/6
f 137/3/6 138/3/6 145/3/6
f 145/3/6 140/3/6 146/3/6
f 146/3/6 140/3/6 147/3/6
f 140/1/6 80/1/6 148/1/6
f 147/3/6 140/3/6 148/3/6
f 142/3/6 143/3/6 149/3/6
f 141/1/6 142/1/6 149/1/6
f 149/3/6 143/3/6 150/3/6
f 150/3/6 143/3/6 151/3/6
f 143/1/6 144/1/6 152/1/6
f 151/3/6 143/3/6 152/3/6
f 144/1/6 145/1/6 152/1/6
f 145/1/6 146/1/6 152/1/6
f 146/3/6 147/3/6 153/3/6
f 152/1/6 146/1/6 153/1/6
f 153/3/6 147/3/6 154/3/6
f 154/3/6 147/3/6 155/3/6
f 147/1/6 148/1/6 156/1/6
f 155/3/6 147/3/6 156/3/6
f 150/3/6 151/3/6 157/3/6
f 149/1/6 150/1/6 157/1/6
f 151/1/6 152/1/6 158/1/6
f 157/3/6 151/3/6 158/3/6
f 152/1/6 153/1/6 158/1/6
f 153/1/6 154/1/6 158/1/6
f 154/3/6 155/3/6 159/3/6
f 158/1/6 154/1/6 159/1/6
f 155/1/6 156/1/6 160/1/6
f 159/3/6 155/3/6 160/3/6
f 77/2/6 79/2/6 161/2/6
f 149/1/6 157/1/6 161/1/6
f 159/1/6 160/1/6 161/1/6
f 141/1/6 149/1/6 161/1/6
f 158/1/6 159/1/6 161/1/6
f 79/1/6 141/1/6 161/1/6
f 157/1/6 158/1/6 161/1/6
f 160/1/6 156/1/6 162/1/6
f 161/1/6 160/1/6 162/1/6
f 80/2/6 78/2/6 162/2/6
f 148/1/6 80/1/6 162/1/6
f 156/1/6 148/1/6 162/1/6
f 77/2/6 161/2/6 163/2/6
f 161/2/6 162/2/6 163/2/6
f 162/2/6 78/2/6 164/2/6
f 163/2/6 162/2/6 164/2/6
